<svg xmlns="http://www.w3.org/2000/svg" id="Line" viewBox="0 0 64 64"><path d="m55.97168 7.04181h-47.94336a4.03261 4.03261 0 0 0 -4.02832 4.02832v31.05957a4.03261 4.03261 0 0 0 4.02832 4.0283h19.58051c.12274 2.36969-3.85163 6.56122-7.02 9.0083a1.00016 1.00016 0 0 0 .61133 1.7915h21.59964a1.00608 1.00608 0 0 0 .57905-1.815c-.06666-.04746-6.25184-4.50443-6.75971-8.98484h19.35254a4.03261 4.03261 0 0 0 4.02832-4.02826v-31.05957a4.03261 4.03261 0 0 0 -4.02832-4.02832zm-47.94336 2h47.94336a2.03063 2.03063 0 0 1 2.02832 2.02832v26.33787h-52v-26.33787a2.03063 2.03063 0 0 1 2.02832-2.02832zm31.9834 45.916h-16.0791c2.35211-2.14062 5.72271-5.75134 5.67486-8.7998h5.01184c.30368 3.5395 3.2533 6.8448 5.3924 8.79981zm15.96-10.7998h-47.9434a2.03064 2.03064 0 0 1 -2.02832-2.02831v-2.7217h52v2.7217a2.03064 2.03064 0 0 1 -2.02832 2.0283z" fill="#4487bb"/><path d="m34.21582 40.50079h-4.73242a1.00019 1.00019 0 0 0 .00006 2h4.73236a1.00019 1.00019 0 0 0 0-2z" fill="#4487bb"/><path d="m15.46 29.368a4.01087 4.01087 0 0 0 4.38865-3.96v-6.40279a1 1 0 0 0 -2 0v6.40279a1.96207 1.96207 0 0 1 -1.96 1.96 2.033 2.033 0 0 1 -2.38083-1.9522v-6.371a1 1 0 0 0 -2 0v6.37109a3.95634 3.95634 0 0 0 3.95218 3.95211z" fill="#4487bb"/><path d="m21.49121 29.17755a1.00017 1.00017 0 0 0 1.39649-.22266l2.44122-3.36621 2.2619 3.33985a1.00019 1.00019 0 0 0 1.65618-1.12115l-2.669-3.941 3.09973-4.27423a.99994.99994 0 0 0 -1.61914-1.17383l-2.67352 3.68648-2.47882-3.66016a1.0002 1.0002 0 0 0 -1.65625 1.12114l2.886 4.26137-2.86744 3.95391a.99981.99981 0 0 0 .22265 1.39649z" fill="#4487bb"/><path d="m30.46387 32.32355a1.00111 1.00111 0 0 0 1.333-.47169l7.31836-15.3291a.99984.99984 0 0 0 -1.80468-.86132l-7.31836 15.3291a.999.999 0 0 0 .47168 1.33301z" fill="#4487bb"/><path d="m44.27148 29.368a4.01175 4.01175 0 0 0 4.38963-3.96v-6.40279a1 1 0 0 0 -2 0v6.40279a1.96291 1.96291 0 0 1 -1.96093 1.96 2.033 2.033 0 0 1 -2.38084-1.9522v-6.371a1 1 0 0 0 -2 0v6.37109a3.95634 3.95634 0 0 0 3.95214 3.95211z" fill="#4487bb"/><path d="m51.49219 29.368a.99974.99974 0 0 0 1-1v-9.36281a1 1 0 1 0 -2 0v9.36281a.99974.99974 0 0 0 1 1z" fill="#4487bb"/></svg>